<?xml version="1.0" standalone="no"?>
<!DOCTYPE svg PUBLIC "-//W3C//DTD SVG 1.1//EN" "http://www.w3.org/Graphics/SVG/1.1/DTD/svg11.dtd" >
<svg xmlns="http://www.w3.org/2000/svg" xmlns:xlink="http://www.w3.org/1999/xlink" version="1.1">
<metadata></metadata>
<defs>
<font id="exo_2_blackregular" horiz-adv-x="1275" >
<font-face units-per-em="2048" ascent="1638" descent="-410" />
<missing-glyph horiz-adv-x="430" />
<glyph horiz-adv-x="0" />
<glyph unicode="&#xd;" horiz-adv-x="681" />
<glyph unicode=" "  horiz-adv-x="430" />
<glyph unicode="&#x09;" horiz-adv-x="430" />
<glyph unicode="&#xa0;" horiz-adv-x="430" />
<glyph unicode="!" horiz-adv-x="673" d="M123 944v479h426v-479l-45 -479h-336zM141 147v84q0 84 32 116t116 32h96q84 0 115.5 -32t31.5 -116v-84q0 -84 -31.5 -115.5t-115.5 -31.5h-96q-84 0 -116 31.5t-32 115.5z" />
<glyph unicode="&#x22;" horiz-adv-x="804" d="M72 1413h295l-25 -467h-246zM438 1413h295l-24 -467h-246z" />
<glyph unicode="#" horiz-adv-x="1515" d="M45 373l49 250h236l35 204h-234l49 250h228l59 336h317l-59 -336h197l59 336h317l-59 -336h234l-50 -250h-227l-35 -204h225l-49 -250h-219l-65 -373h-318l66 373h-197l-65 -373h-318l66 373h-242zM647 623h197l35 204h-197z" />
<glyph unicode="$" horiz-adv-x="1218" d="M66 1026q0 225 111.5 316.5t389.5 99.5l23 174h319l-24 -189q135 -16 248 -57l-27 -285q-238 4 -485 5q-74 0 -98.5 -10.5t-24.5 -43.5q0 -29 24.5 -49t98.5 -47l243 -106q168 -76 237.5 -174.5t69.5 -256.5q0 -225 -103 -321t-370 -109l-20 -198h-318l23 209 q-162 18 -307 57l26 311q385 -10 500 -10q80 0 106.5 10t26.5 39t-19.5 47.5t-76.5 38.5l-268 123q-166 78 -235.5 174t-69.5 252z" />
<glyph unicode="%" horiz-adv-x="1886" d="M45 1020q0 242 81 332t290 90q211 0 293 -90t82 -332t-82 -332t-293 -90q-209 0 -290 90t-81 332zM358 1020q0 -139 9.5 -169t48.5 -30q41 0 51 31t10 168t-10 168t-51 31q-39 0 -48.5 -31t-9.5 -168zM424 0l778 1413h258l-778 -1413h-258zM1098 393.5 q0 241.5 80.5 331.5t289.5 90q211 0 293 -90t82 -331.5t-82 -332t-293 -90.5q-209 0 -289.5 90.5t-80.5 332zM1411 393q0 -137 9.5 -167.5t47.5 -30.5q41 0 51.5 30.5t10.5 167.5t-10.5 168t-51.5 31q-39 0 -48 -30t-9 -169z" />
<glyph unicode="&#x26;" horiz-adv-x="1558" d="M72 360q0 168 65.5 260.5t214.5 106.5v12q-127 12 -181 90t-54 236q0 100 20.5 166.5t58 108.5t111.5 64.5t159 30t220 7.5q207 0 340 -29l-51 -287q-252 6 -301 7q-68 0 -89.5 -26t-21.5 -112q0 -82 21.5 -109.5t89.5 -27.5h241l23 182h365v-182h178v-268h-178v-217 q0 -41 15 -57.5t52 -16.5h103l47 -274q-113 -53 -308 -54q-197 0 -272 127q-80 -68 -175 -97.5t-251 -29.5q-238 0 -340 89.5t-102 299.5zM541 453q0 -92 19.5 -120t88.5 -26q129 4 250 31v252h-250q-70 0 -89 -25.5t-19 -111.5z" />
<glyph unicode="'" horiz-adv-x="438" d="M72 1413h295l-25 -467h-246z" />
<glyph unicode="(" horiz-adv-x="761" d="M51 639q0 418 156.5 655.5t492.5 323.5l50 -180q-152 -61 -217.5 -263t-65.5 -534q0 -674 283 -799l-50 -180q-336 88 -492.5 324.5t-156.5 652.5z" />
<glyph unicode=")" horiz-adv-x="761" d="M12 -158q283 125 283 799q0 332 -65.5 534t-217.5 263l49 180q336 -86 493 -323.5t157 -655.5q0 -416 -157 -652.5t-493 -324.5z" />
<glyph unicode="*" horiz-adv-x="933" d="M47 1057l70 217l231 -105v-100l-51 -61zM154 795l235 262l-37 360h230l-33 -358l231 -264l-182 -136l-131 244l-129 -244zM586 1169l231 107l70 -219l-246 -49l-51 61z" />
<glyph unicode="+" horiz-adv-x="1071" d="M53 463v317h326v324h313v-324h326v-317h-326v-324h-313v324h-326z" />
<glyph unicode="," horiz-adv-x="522" d="M66 131l6 100q2 84 32.5 116t112.5 32h84q82 0 113.5 -32t34.5 -116v-131q0 -145 -33 -239t-105 -193l-159 51q35 104 38 281q-121 0 -124 131z" />
<glyph unicode="-" horiz-adv-x="776" d="M90 401v250h596v-250h-596z" />
<glyph unicode="." horiz-adv-x="530" d="M70 147v84q0 84 31.5 116t115.5 32h96q84 0 116 -32t32 -116v-84q0 -84 -32 -115.5t-116 -31.5h-96q-84 0 -115.5 31.5t-31.5 115.5z" />
<glyph unicode="/" horiz-adv-x="1204" d="M31 -162l805 1575h338l-805 -1575h-338z" />
<glyph unicode="0" horiz-adv-x="1349" d="M70 706.5q0 417.5 133 576.5t471 159q340 0 473 -159t133 -576.5t-133 -576.5t-473 -159q-338 0 -471 159t-133 576.5zM510 706.5q0 -184.5 15.5 -269.5t46 -110.5t100.5 -25.5q74 0 105.5 25.5t47 110.5t15.5 269.5t-15.5 269.5t-47 110.5t-105.5 25.5 q-70 0 -100.5 -25.5t-46 -110.5t-15.5 -269.5z" />
<glyph unicode="1" horiz-adv-x="954" d="M4 1276l361 137h442v-1413h-442v885q0 113 16 182l-326 -63z" />
<glyph unicode="2" horiz-adv-x="1228" d="M68 0v221q0 106 61 178l295 289q252 252 252 340q0 29 -25.5 36t-99.5 7q-256 0 -457 -4l-14 326q246 45 528 45q258 0 390 -77t132 -276q0 -117 -39.5 -199.5t-175.5 -217.5l-333 -316q82 25 188 21h393v-373h-1095z" />
<glyph unicode="3" horiz-adv-x="1183" d="M57 10l13 312q238 -10 393 -11q131 0 171 24.5t40 119.5q0 84 -32 113.5t-126 27.5l-272 -4v270h272q94 0 120 28t26 99q0 70 -32 92.5t-126 22.5h-404l-12 299q242 39 496 39q274 0 382.5 -72t108.5 -258q0 -168 -49 -253t-184 -103v-8q150 -23 209 -104t61 -251 q4 -227 -117 -324.5t-409 -97.5q-242 0 -529 39z" />
<glyph unicode="4" horiz-adv-x="1349" d="M31 498l342 915h409l-286 -792q-8 -23 2 -37.5t32 -14.5h220v349l71 217h332v-566h162v-241l-158 -41h-4v-287h-403v287h-568q-88 0 -135 64.5t-16 146.5z" />
<glyph unicode="5" horiz-adv-x="1163" d="M49 12l37 330q279 -12 371 -12q119 0 162 26.5t49 100.5q6 72 -37 101.5t-152 37.5l-258 33q-55 8 -89 47t-32 92l39 645h926l-14 -317h-582l-12 -148l262 -35q389 -47 389 -473q0 -465 -535 -465q-215 0 -524 37z" />
<glyph unicode="6" horiz-adv-x="1245" d="M72 694q0 160 17 279t55 200.5t87.5 134t125 81t157.5 39t197 10.5q233 0 387 -45l-17 -265h-370q-125 0 -166 -49t-47 -215q96 70 274 70q242 0 332 -98.5t90 -331.5q0 -147 -23.5 -241.5t-84 -162t-169 -96.5t-276.5 -29q-166 0 -269.5 30t-174 112t-98 219t-27.5 358z M496 608q2 -217 26.5 -270t122.5 -53q92 0 113.5 38.5t21.5 170.5q0 96 -25.5 122.5t-115.5 26.5q-72 0 -143 -35z" />
<glyph unicode="7" horiz-adv-x="1112" d="M29 1413h907q90 0 138 -62.5t20 -144.5l-424 -1206h-432l325 897q37 104 78 162h-594z" />
<glyph unicode="8" horiz-adv-x="1308" d="M76 352q0 354 258 377v8q-111 12 -166 107.5t-55 216.5q0 141 42 219t160.5 120t339.5 42q223 0 342 -42t160 -120t41 -219q0 -121 -55.5 -216t-165.5 -108v-8q258 -23 258 -377q0 -217 -118 -299t-462 -84q-338 -2 -458.5 82t-120.5 301zM492 434q0 -94 31.5 -123.5 t133.5 -29.5q98 0 129 29.5t31 123.5q0 100 -31 132t-127 32q-102 0 -134.5 -33t-32.5 -131zM510 1001q0 -82 29.5 -107.5t122.5 -25.5q88 0 113.5 25t25.5 108q0 96 -28 125t-116 29q-90 0 -118.5 -28.5t-28.5 -125.5z" />
<glyph unicode="9" horiz-adv-x="1245" d="M55 909q0 291 116 410t435 119q178 0 282.5 -29t171 -114t89 -217t22.5 -359q0 -195 -22.5 -325t-66.5 -214t-124.5 -128t-178 -60.5t-247.5 -16.5q-245 0 -419 45l18 267q133 -2 401 -2q121 0 163 54t50 210q-100 -70 -274 -70q-229 0 -322.5 109.5t-93.5 320.5z M471 920q0 -96 25.5 -123t109.5 -27q70 0 142 37q-2 215 -26 268t-120 53q-88 0 -109.5 -39.5t-21.5 -168.5z" />
<glyph unicode=":" horiz-adv-x="567" d="M72 150v83q0 84 31.5 116t115.5 32h96q84 0 116 -32t32 -116v-83q0 -84 -32 -116t-116 -32h-96q-84 0 -115.5 32t-31.5 116zM72 715v84q0 84 31.5 115.5t115.5 31.5h96q84 0 116 -31.5t32 -115.5v-84q0 -84 -32 -116t-116 -32h-96q-84 0 -115.5 32t-31.5 116z" />
<glyph unicode=";" horiz-adv-x="567" d="M86 131l6 100q2 84 33 116t113 32h84q82 0 113.5 -32t33.5 -116v-131q0 -145 -33 -239t-104 -193l-160 51q35 104 39 281q-121 0 -125 131zM90 715v84q0 84 32 115.5t116 31.5h96q84 0 115.5 -31.5t31.5 -115.5v-84q0 -84 -31.5 -116t-115.5 -32h-96q-84 0 -116 32 t-32 116z" />
<glyph unicode="&#x3c;" horiz-adv-x="1034" d="M53 457v329l891 322v-334l-530 -153l530 -154v-334z" />
<glyph unicode="=" horiz-adv-x="1169" d="M92 248v299h985v-299h-985zM92 690v299h985v-299h-985z" />
<glyph unicode="&#x3e;" horiz-adv-x="1028" d="M90 133v334l524 154l-524 153v334l885 -322v-329z" />
<glyph unicode="?" horiz-adv-x="1097" d="M49 1401q16 4 76.5 15t77 14.5t69 11.5t89 10t97 4t132.5 2q238 0 351.5 -77.5t113.5 -239.5q0 -82 -35 -150.5t-85 -121t-103.5 -105.5t-96.5 -130t-53 -169h-336q-6 117 29 221.5t82 163.5t91 115.5t50 85.5q8 39 -17.5 53t-97.5 14h-424zM317 147v84q0 84 32 116 t116 32h96q84 0 116 -32t32 -116v-84q0 -84 -32 -115.5t-116 -31.5h-96q-84 0 -116 31.5t-32 115.5z" />
<glyph unicode="@" horiz-adv-x="1640" d="M80 553q0 168 7 269.5t37 189.5t75 130t134 73.5t198.5 40t285.5 8.5h332q205 0 305 -88.5t100 -298.5v-594h-313l-33 129q-123 -156 -319 -156q-135 0 -226.5 69.5t-91.5 192.5v92q0 113 81 177.5t220 64.5h289v27q0 49 -22.5 70.5t-79.5 21.5h-242q-74 0 -105.5 -1 t-78.5 -7.5t-62.5 -15.5t-41 -30.5t-31.5 -48t-15.5 -75t-10.5 -102.5t-1 -138q0 -166 8 -244t62.5 -122t113 -48t217.5 -4h52h632v-262q-395 -35 -632 -35q-201 0 -327 8.5t-228.5 40t-152.5 74.5t-85 131t-43 190.5t-8 270.5zM950 578q0 -57 76 -58q66 0 135 43v111 l-141 -10q-70 -6 -70 -58v-28z" />
<glyph unicode="A" horiz-adv-x="1398" d="M-18 0l366 1298q14 51 55 83t95 32h403q53 0 94 -31.5t56 -83.5l366 -1298h-452l-72 305h-387l-72 -305h-452zM578 616h243l-69 304q-18 96 -25 161h-55q-12 -96 -25 -161z" />
<glyph unicode="B" horiz-adv-x="1351" d="M106 0v1413q209 16 611 17q301 0 416.5 -77t115.5 -292q0 -154 -60.5 -232t-197.5 -90v-12q164 -14 234.5 -106.5t70.5 -268.5q0 -211 -117.5 -289.5t-394.5 -78.5q-449 0 -678 16zM541 285h164q92 0 120.5 30.5t28.5 126.5q0 98 -28.5 129t-123.5 31h-161v-317zM541 862 h157q78 0 102.5 26.5t24.5 108.5t-25.5 106.5t-105.5 24.5h-153v-266z" />
<glyph unicode="C" horiz-adv-x="1239" d="M66 706.5q0 403.5 144 567.5t497 164q264 0 464 -56l-32 -323q-287 4 -432 4q-104 0 -139.5 -70.5t-35.5 -285.5t35 -286t140 -71q304 1 462 17l33 -324q-197 -68 -495 -68q-352 0 -496.5 164t-144.5 567.5z" />
<glyph unicode="D" horiz-adv-x="1435" d="M106 0v1413q360 20 605 21q252 0 390 -62.5t203.5 -219.5t65.5 -445.5t-65.5 -445.5t-203.5 -219t-390 -62q-308 0 -605 20zM551 303l160 -2q115 0 152.5 81t37.5 324.5t-38 324.5t-152 81h-160v-809z" />
<glyph unicode="E" horiz-adv-x="1220" d="M96 313v787q0 143 93.5 232t238.5 89q530 0 735 -26l-20 -314h-518q-39 0 -61.5 -20.5t-22.5 -52.5v-138h528v-295h-528v-169q0 -33 22.5 -53.5t61.5 -20.5h518l20 -314q-198 -26 -698 -26h-37q-145 0 -238.5 89t-93.5 232z" />
<glyph unicode="F" horiz-adv-x="1175" d="M102 0v1100q0 143 94.5 232t241.5 89q516 0 711 -28l-21 -312h-493q-41 0 -64.5 -20.5t-23.5 -52.5v-166h506v-295h-506v-547h-445z" />
<glyph unicode="G" horiz-adv-x="1368" d="M66 707q0 406 149.5 570.5t515.5 164.5q295 0 502 -60l-33 -319q-311 4 -467 4q-119 0 -160 -71.5t-41 -288.5q0 -213 37 -285t144 -72q72 0 153 12v451h426v-813h-327l-39 145q-57 -72 -158.5 -123t-232.5 -51q-248 0 -358.5 169t-110.5 567z" />
<glyph unicode="H" horiz-adv-x="1462" d="M109 0v1413h444v-508h356v508h445v-1413h-445v594h-356v-594h-444z" />
<glyph unicode="I" horiz-adv-x="657" d="M109 0v1413h440v-1413h-440z" />
<glyph unicode="J" horiz-adv-x="827" d="M20 25l48 278h96q121 0 121 72v1038h440v-1153q0 -137 -100.5 -213t-274.5 -76q-80 0 -181 14.5t-149 39.5z" />
<glyph unicode="K" horiz-adv-x="1384" d="M109 0v1413h444v-356q0 -96 -21 -180h78l295 536h477l-325 -553q-51 -94 -125 -125v-8q31 -12 75 -54t66 -85l330 -588h-494l-299 590h-73q16 -72 16 -129v-461h-444z" />
<glyph unicode="L" horiz-adv-x="1140" d="M102 313v1100h445v-987q0 -33 23.5 -53.5t62.5 -20.5h475l20 -332q-204 -28 -658 -28h-32q-152 0 -244 89t-92 232z" />
<glyph unicode="M" horiz-adv-x="1949" d="M82 0l49 1260q6 153 154 153h2h383q143 0 168 -137l102 -561q10 -66 23 -211h18q0 6 9 88t16 123l96 561q25 137 170 137h391q150 0 156 -153l49 -1260h-400l-43 1081h-30l-140 -721q-23 -135 -168 -135h-229q-145 0 -170 135l-141 721h-31l-35 -1081h-399z" />
<glyph unicode="N" horiz-adv-x="1511" d="M106 0v1260q0 153 152 153h2h170q63 0 96 -28.5t76 -100.5l295 -463q55 -98 109 -241h14q-18 152 -21 256v577h408v-1259q0 -154 -154 -154h-170q-63 0 -97 28.5t-75 100.5l-307 485q-51 92 -94 242h-14q20 -143 20 -258v-598h-410z" />
<glyph unicode="O" horiz-adv-x="1447" d="M66 706.5q0 292.5 65.5 451.5t203.5 221.5t388 62.5q252 0 390 -62.5t203.5 -221.5t65.5 -451.5t-65.5 -451.5t-203.5 -221.5t-390 -62.5q-250 0 -388 62.5t-203.5 221.5t-65.5 451.5zM532 706.5q0 -243.5 38 -324.5t153 -81t152.5 81t37.5 324.5t-37.5 324.5t-152.5 81 t-153 -81t-38 -324.5z" />
<glyph unicode="P" horiz-adv-x="1323" d="M106 0v1413q209 20 599 21q338 0 461.5 -100.5t123.5 -381.5q0 -276 -114.5 -376.5t-409.5 -100.5q-111 0 -215 12v-487h-445zM551 788h143q90 0 121 33t31 131q0 100 -31 134t-121 34h-143v-332z" />
<glyph unicode="Q" horiz-adv-x="1447" d="M66 706.5q0 292.5 65.5 451.5t203.5 221.5t388 62.5q252 0 390 -62.5t203.5 -221.5t65.5 -451.5t-65.5 -451.5t-203.5 -221.5t-390 -62.5q-250 0 -388 62.5t-203.5 221.5t-65.5 451.5zM508 -264l94 211q229 -86 674 -152l-109 -358q-405 117 -659 299zM532 706.5 q0 -243.5 38 -324.5t153 -81t152.5 81t37.5 324.5t-37.5 324.5t-152.5 81t-153 -81t-38 -324.5z" />
<glyph unicode="R" horiz-adv-x="1384" d="M106 0v1413q209 20 601 21q319 0 457.5 -94.5t138.5 -335.5q0 -307 -287 -336v-13q193 -25 231 -221l111 -434h-465l-92 420q-12 57 -38 76.5t-83 19.5h-137v-516h-437zM543 829h153q96 0 128 29t32 117t-31.5 116.5t-128.5 28.5h-153v-291z" />
<glyph unicode="S" horiz-adv-x="1249" d="M61 1026q0 238 129 327t453 89q309 0 514 -72l-27 -285q-246 4 -497 5q-78 0 -104.5 -10.5t-26.5 -43.5q0 -29 25.5 -48t97.5 -48l256 -106q174 -76 245.5 -174.5t71.5 -256.5q0 -240 -125 -336t-452 -96q-276 0 -547 70l26 311q406 -10 514 -10q84 0 112 10t28 39 t-20 47.5t-77 38.5l-280 123q-172 76 -244 173t-72 253z" />
<glyph unicode="T" d="M20 1081v332h1235v-332h-395v-1081h-444v1081h-396z" />
<glyph unicode="U" horiz-adv-x="1443" d="M96 584v829h445v-829q0 -170 36.5 -226.5t145.5 -56.5q106 0 143 56.5t37 226.5v829h445v-829q0 -338 -135.5 -475.5t-467.5 -137.5q-358 0 -503.5 137.5t-145.5 475.5z" />
<glyph unicode="V" horiz-adv-x="1372" d="M-4 1413h457l182 -919q4 -18 27 -162h49q8 72 26 162l183 919h456l-344 -1294q-12 -53 -53 -86t-98 -33h-389q-57 0 -98.5 33t-53.5 86z" />
<glyph unicode="W" horiz-adv-x="2054" d="M41 1413h438l72 -866q8 -139 8 -236h33q29 201 33 238l94 733q6 57 48 94t101 37h318q59 0 100 -36t49 -95l97 -737q6 -61 30 -234h33q0 57 10 232l70 870h438l-176 -1294q-8 -53 -51 -86t-100 -33h-377q-57 0 -101.5 33t-50.5 86l-96 780q-8 63 -17 207h-34 q-8 -143 -17 -209l-94 -778q-6 -53 -50 -86t-101 -33h-379q-57 0 -100.5 33t-51.5 86z" />
<glyph unicode="X" horiz-adv-x="1386" d="M-10 0l350 721l-322 692h439l237 -559l236 559h438l-321 -692l350 -721h-441l-262 594l-264 -594h-440z" />
<glyph unicode="Y" horiz-adv-x="1339" d="M-20 1413h456l178 -444q18 -45 43 -199h27q25 150 43 201l176 442h457l-467 -973v-440h-444v436z" />
<glyph unicode="Z" horiz-adv-x="1239" d="M59 0v311l611 791h-590v311h1081v-311l-610 -791h631v-311h-1123z" />
<glyph unicode="[" horiz-adv-x="743" d="M125 -131v1497q0 92 57.5 149.5t149.5 57.5h362v-262h-123q-45 0 -45 -45v-1297q0 -45 45 -45h123v-262h-362q-100 0 -153.5 46t-53.5 161z" />
<glyph unicode="\" horiz-adv-x="1204" d="M31 1413h338l805 -1575h-338z" />
<glyph unicode="]" horiz-adv-x="743" d="M49 -76h123q45 0 45 45v1297q0 45 -45 45h-123v262h363q92 0 149 -57.5t57 -149.5v-1497q0 -92 -57 -149.5t-149 -57.5h-363v262z" />
<glyph unicode="^" horiz-adv-x="1017" d="M61 848l295 489h312l288 -489l-165 -86l-271 321h-16l-279 -321z" />
<glyph unicode="_" horiz-adv-x="1087" d="M82 0h924v-250h-924v250z" />
<glyph unicode="`" horiz-adv-x="802" d="M82 1257l162 273l477 -307l-117 -176z" />
<glyph unicode="a" horiz-adv-x="1208" d="M43 262v103q0 123 90 193.5t248 70.5h319v8q-2 55 -28.5 78.5t-91.5 23.5q-226 0 -443 -10l-39 272q279 51 584 52q227 0 337.5 -94.5t110.5 -323.5v-635h-342l-38 143q-135 -172 -355 -172q-152 0 -252 76t-100 215zM461 326q0 -63 86 -64q68 0 153 51v109h-161 q-78 -1 -78 -64v-32z" />
<glyph unicode="b" horiz-adv-x="1265" d="M86 61v1373h430l4 -285v-26q0 -115 -31 -220q162 150 334 150q213 0 300 -122t87 -407q0 -115 -21.5 -204t-77.5 -171.5t-170 -128t-282 -45.5q-139 0 -316 22.5t-257 63.5zM516 272q72 -8 118 -8h17q68 4 92.5 54.5t24.5 203.5q0 129 -24.5 169t-100.5 40h-4 q-57 0 -123 -26v-433z" />
<glyph unicode="c" horiz-adv-x="1081" d="M53 514q0 297 123 418t426 121q270 0 428 -76l-43 -266h-311q-100 0 -136 -40t-36 -157q0 -119 35.5 -159t136.5 -40q201 1 330 15l38 -269q-164 -86 -446 -86q-301 0 -423 121t-122 418z" />
<glyph unicode="d" horiz-adv-x="1269" d="M57 524q0 301 93.5 415t295.5 114q197 0 314 -86q-8 143 -8 223v244h430v-1434h-342l-35 168q-102 -193 -377 -193q-195 0 -283 139.5t-88 409.5zM500 528q0 -133 23.5 -171t88.5 -38q79 0 140 31v395q-68 27 -134 27q-70 0 -94 -44t-24 -200z" />
<glyph unicode="e" horiz-adv-x="1208" d="M51 504q0 301 131 425t451 124q283 0 406.5 -90.5t125.5 -274.5v-6q0 -140 -87 -202q-89 -62 -310 -62h-256q12 -63 50 -88t120 -25q201 0 416 23l39 -258q-186 -94 -502 -95q-313 0 -448.5 130.5t-135.5 398.5zM504 621h143q70 0 88.5 13t18.5 64q0 47 -23.5 62.5 t-85.5 15.5h-11q-72 0 -98 -26q-28 -28 -32 -129z" />
<glyph unicode="f" horiz-adv-x="874" d="M16 766v248l172 10v125q0 334 377 334q231 0 375 -29l-41 -258h-180q-57 0 -77.5 -23.5t-20.5 -82.5v-66h243v-258h-243v-766h-433v766h-172z" />
<glyph unicode="g" horiz-adv-x="1236" d="M14 -80q0 76 35 127t125 90q-53 58 -53 131q0 21 5 44q19 100 105 141q-172 68 -172 276q0 176 120 250t411 74q190 0 297 -29h344l-21 -158l-112 -18q16 -47 16 -119q0 -178 -117.5 -250.5t-408.5 -72.5q-84 0 -152 6q-23 -23 -8.5 -56.5t66.5 -36.5l372 -24 q172 -12 250 -90t78 -232q0 -209 -131 -276.5t-461 -67.5q-244 0 -371 31t-172 89t-45 171zM416 -14q0 -39 36.5 -52.5t143.5 -13.5q117 0 157 11.5t40 43.5q0 35 -33 46.5t-127 17.5l-182 14q-35 -27 -35 -67zM459 729q0 -53 26.5 -71.5t102.5 -18.5t101.5 18.5t25.5 71.5 t-25.5 70.5t-101.5 17.5t-102.5 -17.5t-26.5 -70.5z" />
<glyph unicode="h" horiz-adv-x="1271" d="M88 0v1434h432v-306q0 -119 -20 -227q188 152 387 152q303 0 303 -287v-766h-430v629q0 33 -16.5 47t-57.5 14q-86 0 -168 -24v-666h-430z" />
<glyph unicode="i" horiz-adv-x="620" d="M94 1262v104q0 127 125 127h182q125 0 125 -127v-104q0 -127 -125 -127h-182q-125 0 -125 127zM96 0v1024h428v-1024h-428z" />
<glyph unicode="j" horiz-adv-x="622" d="M-43 -201q141 141 141 320v905h428v-905q0 -164 -90 -305.5t-241 -202.5zM90 1282v104q0 127 125 127h182q125 0 125 -127v-104q0 -127 -125 -127h-182q-125 0 -125 127z" />
<glyph unicode="k" horiz-adv-x="1247" d="M88 0v1434h430v-549q0 -96 -16 -201h59l195 340h471l-215 -336q-43 -78 -119 -123v-8q25 -12 60.5 -54t58.5 -83l254 -420h-473l-234 442h-55q14 -92 14 -149v-293h-430z" />
<glyph unicode="l" horiz-adv-x="733" d="M90 258v1176h428v-1061q0 -74 103 -74h69l47 -274q-41 -25 -134 -39.5t-167 -14.5q-162 0 -254 76t-92 211z" />
<glyph unicode="m" horiz-adv-x="1812" d="M88 0v1024h336l37 -150q88 94 173 136.5t193 42.5q207 0 267 -152q154 152 342 152q295 0 295 -287v-766h-428v629q0 35 -14.5 48t-53.5 13q-55 0 -119 -24v-666h-414v629q0 61 -69 61q-53 0 -117 -22v-668h-428z" />
<glyph unicode="n" horiz-adv-x="1271" d="M88 0v1024h338l39 -152q195 180 422 181q303 0 303 -287v-766h-430v629q0 33 -16.5 47t-57.5 14q-86 0 -168 -24v-666h-430z" />
<glyph unicode="o" horiz-adv-x="1251" d="M53 510q0 299 129.5 421t444.5 122q313 0 442 -122t129 -421q0 -295 -129 -415t-442 -120q-315 0 -444.5 120t-129.5 415zM504 510q0 -152 23.5 -198t99.5 -46q74 0 97.5 46t23.5 198q0 158 -23.5 205t-97.5 47q-76 0 -99.5 -47t-23.5 -205z" />
<glyph unicode="p" horiz-adv-x="1269" d="M88 -369v1393h344l35 -139q49 70 153.5 117t223.5 47q195 0 281.5 -139.5t86.5 -409.5q0 -303 -92 -416t-295 -113q-199 0 -313 86q6 -116 6 -189v-34v-203h-430zM518 279q68 -27 135.5 -27t92 44t24.5 199.5t-23.5 199.5t-87.5 44q-67 0 -141 -37v-423z" />
<glyph unicode="q" horiz-adv-x="1265" d="M55 504q0 129 21.5 220t78 170t169 119t282.5 40q139 0 316.5 -22.5t257.5 -63.5v-1336h-430v267v29q0 113 28 220q-156 -172 -338 -172q-207 0 -296 133.5t-89 395.5zM498 506q0 -117 24.5 -153t98.5 -36q57 0 129 27v412q-72 8 -118 8h-18q-70 -4 -93 -54.5t-23 -203.5 z" />
<glyph unicode="r" horiz-adv-x="925" d="M88 0v1024h336l39 -150q190 178 399 179h60l-37 -394h-109q-109 0 -258 -20v-639h-430z" />
<glyph unicode="s" horiz-adv-x="1132" d="M49 754q0 147 108.5 223t366.5 76q305 0 525 -45l-27 -250h-404q-111 0 -132 -3t-21 -21.5t70 -35.5q31 -8 51 -14l235 -59q141 -39 206 -110t65 -200q0 -193 -112 -265.5t-384 -72.5q-283 0 -533 43l27 250h365q152 0 186.5 4.5t34.5 26.5q0 4 -1 7t-4 6t-6 5.5 t-9.5 5.5t-13.5 4t-18.5 5t-21.5 6t-26.5 7t-32.5 9l-226 62q-158 45 -213 125t-55 211z" />
<glyph unicode="t" horiz-adv-x="897" d="M20 766v248l173 8v270h432v-268h247v-258h-247v-393q0 -39 20.5 -56.5t67.5 -17.5h108l47 -274q-127 -53 -348 -54q-150 0 -237.5 76t-87.5 211v508h-175z" />
<glyph unicode="u" horiz-adv-x="1259" d="M82 258v766h430v-629q0 -63 76 -63q74 0 151 24v668h432v-1024h-337l-39 150q-197 -178 -410 -179q-303 0 -303 287z" />
<glyph unicode="v" horiz-adv-x="1230" d="M-6 1024h455l124 -565q12 -59 29 -193h27q2 10 30 193l123 565h455l-303 -924q-31 -100 -135 -100h-367q-104 0 -135 100z" />
<glyph unicode="w" horiz-adv-x="1794" d="M16 1024h426l74 -575q12 -127 16 -183h25q2 27 5 57.5t7 67.5t6 58l58 450q6 55 47 90t98 35h236q57 0 98 -35t47 -92l55 -448q2 -20 10.5 -84t10.5 -99h25q18 176 18 183l72 575h428l-209 -915q-10 -49 -48 -79t-91 -30h-302q-57 0 -99 36t-48 91l-59 465q0 8 -13 180 h-26q-8 -111 -15 -180l-59 -465q-6 -55 -48 -91t-99 -36h-297q-53 0 -91 29.5t-49 79.5z" />
<glyph unicode="x" horiz-adv-x="1241" d="M-6 0l297 522l-275 502h424l181 -358l180 358h424l-275 -502l297 -522h-426l-200 385l-201 -385h-426z" />
<glyph unicode="y" horiz-adv-x="1232" d="M-6 1024h457l120 -565q8 -55 27 -193h18q14 49 43 193l121 565h457l-326 -995q-18 -61 -44.5 -116.5t-68.5 -116t-94.5 -102.5t-124 -76t-157.5 -37h-24q-77 0 -169 16l-28 231q121 25 190.5 63.5t110.5 108.5h-70q-104 0 -135 100z" />
<glyph unicode="z" horiz-adv-x="1107" d="M59 0v276l476 472h-463v276h964v-276l-475 -472h488v-276h-990z" />
<glyph unicode="{" horiz-adv-x="735" d="M45 539v266q47 14 60.5 22.5t22.5 32t9 76.5v338q0 170 134.5 256t404.5 43v-262q-47 0 -63.5 -1t-36 -8.5t-24.5 -22.5t-5 -46v-256q4 -139 -48.5 -213t-189.5 -92q137 -37 190.5 -108.5t55.5 -188.5v-379q0 -12 1 -21.5t2 -16.5t6 -12t7 -9.5t11.5 -6.5t13.5 -4 t17.5 -2h19.5h24.5h26.5v-262q-270 -43 -404.5 43t-134.5 256v455q0 33 -4 51t-21.5 32.5t-26.5 19.5t-48 20z" />
<glyph unicode="|" horiz-adv-x="565" d="M133 -346v1945h299v-1945h-299z" />
<glyph unicode="}" horiz-adv-x="735" d="M51 -76h26.5h25h19.5t17 2t13.5 4t11.5 6.5t7 9.5t6 12t2 16.5t1 21.5v379q2 117 55.5 188.5t190.5 108.5q-137 18 -189.5 92t-48.5 213v256q0 55 -23.5 66.5t-105.5 11.5v262q270 43 404.5 -43t134.5 -256v-338q0 -53 9 -76.5t22.5 -32t60.5 -22.5v-266 q-33 -14 -39 -16.5t-25.5 -13.5t-22.5 -20.5t-8 -28t-5 -44.5v-455q0 -170 -134 -256t-405 -43v262z" />
<glyph unicode="~" horiz-adv-x="1024" d="M92 424q-31 172 23.5 260t150.5 86q43 0 135.5 -19.5t185.5 -43t107 -25.5q43 -8 51.5 7.5t8.5 70.5h178q31 -170 -20.5 -260t-153.5 -86q-43 0 -133 19.5t-183.5 42t-113.5 26.5q-41 6 -49.5 -6.5t-8.5 -59.5v-12h-178z" />
<glyph unicode="&#xa2;" horiz-adv-x="1107" d="M51 711q0 281 110.5 403.5t377.5 132.5l20 166h320l-23 -184q104 -20 182 -55l-43 -246h-315q-123 0 -164 -42t-41 -175t41 -176t164 -43q203 0 334 14l39 -248q-131 -68 -342 -82l-21 -176h-317l22 188q-186 37 -265 159t-79 364z" />
<glyph unicode="&#xa3;" horiz-adv-x="1234" d="M72 848h143l-16 194q-16 229 89 313.5t365 84.5q211 0 480 -21l-21 -317h-379q-57 0 -80.5 -19.5t-19.5 -60.5l18 -174h310l-11 -205h-276l2 -20q6 -82 -16.5 -142.5t-44 -82t-76.5 -64.5l-15 -12q57 20 176 20h478v-342h-1100v342q102 47 134 114.5t21 166.5l-2 20h-155 z" />
<glyph unicode="&#xa5;" horiz-adv-x="1454" d="M37 1413h457l178 -424q18 -41 43 -198h26q25 158 43 200l177 422h456l-307 -639h141v-225h-1044l-4 225h141zM203 487h1048v-225h-301v-262h-444v262h-299z" />
<glyph unicode="&#xa8;" horiz-adv-x="892" d="M102 1266v129q0 80 80 80h142q80 0 79 -80v-129q0 -80 -79 -80h-142q-80 0 -80 80zM489 1266v129q0 80 80 80h142q80 0 80 -80v-129q0 -80 -80 -80h-142q-80 0 -80 80z" />
<glyph unicode="&#xa9;" horiz-adv-x="1601" d="M55 706.5q0 317.5 215.5 526.5t530.5 209q317 0 531 -208t214 -527.5t-214 -527.5t-531 -208q-315 0 -530.5 209t-215.5 526.5zM264 706.5q0 -229.5 157 -383t380 -153.5q225 0 380.5 152.5t155.5 384t-155.5 384t-380.5 152.5q-223 0 -380 -153.5t-157 -383zM412 708.5 q0 221.5 89 310.5t308 89q156 0 285 -33l-23 -223h-262q-49 0 -60.5 -24.5t-11.5 -118.5q0 -96 11.5 -120t60.5 -24q195 0 281 6l22 -221q-127 -43 -303 -43q-219 0 -308 90t-89 311.5z" />
<glyph unicode="&#xab;" horiz-adv-x="1130" d="M43 469v90l324 404l225 -142l-176 -307l176 -319l-225 -142zM524 469v90l324 404l225 -142l-176 -307l176 -319l-225 -142z" />
<glyph unicode="&#xad;" horiz-adv-x="776" d="M90 401v250h596v-250h-596z" />
<glyph unicode="&#xae;" horiz-adv-x="1009" d="M49 987q0 188 133.5 321.5t323.5 133.5q188 0 321.5 -133t133.5 -322q0 -190 -133.5 -323.5t-321.5 -133.5q-190 0 -323.5 133.5t-133.5 323.5zM168 987q0 -141 99.5 -240.5t238.5 -99.5q137 0 236.5 99.5t99.5 240.5q0 139 -99.5 238.5t-236.5 99.5q-139 0 -238.5 -99.5 t-99.5 -238.5zM303 784v426q66 6 211 7q115 0 164 -29t49 -103q0 -88 -100 -98v-4q70 -4 84 -70l34 -129h-184l-22 123q-8 23 -37 23h-25v-146h-174zM477 1034h31q27 0 35 7.5t8 25.5t-7 23.5t-36 5.5h-31v-62z" />
<glyph unicode="&#xb4;" horiz-adv-x="802" d="M82 1223l477 307l162 -273l-522 -210z" />
<glyph unicode="&#xb8;" horiz-adv-x="538" d="M29 -502l45 160q82 0 127 19.5t51 84.5q2 20 -23 23h-120l38 147q193 31 280 6.5t81 -139.5q-8 -170 -143.5 -248.5t-335.5 -52.5z" />
<glyph unicode="&#xbb;" horiz-adv-x="1130" d="M57 195l176 319l-176 307l226 142l323 -404v-90l-323 -416zM539 195l176 319l-176 307l225 142l323 -404v-90l-323 -416z" />
<glyph unicode="&#x2c6;" horiz-adv-x="976" d="M49 1233l287 272h311l277 -288l-99 -142l-325 191h-17l-331 -191z" />
<glyph unicode="&#x2da;" horiz-adv-x="651" d="M61 1341.5q0 106.5 78 181t186.5 74.5t186.5 -74.5t78 -181t-78 -181.5t-186.5 -75t-186.5 75t-78 181.5zM236 1341q0 -39 26.5 -65.5t63 -26.5t63.5 27t27 65q0 37 -27 65t-63.5 28t-63 -28t-26.5 -65z" />
<glyph unicode="&#x2dc;" horiz-adv-x="942" d="M92 1137q-31 170 25.5 261t148.5 85q82 -6 201 -44t145 -44q43 -8 51.5 7t8.5 71h178q31 -166 -21.5 -259.5t-152.5 -87.5q-80 6 -201 45t-147 43q-41 6 -49.5 -6t-8.5 -59v-12h-178z" />
<glyph unicode="&#x401;" horiz-adv-x="1224" d="M100 313v787q0 143 93.5 232t238.5 89q530 0 735 -26l-20 -314h-518q-39 0 -61.5 -20.5t-22.5 -52.5v-138h528v-295h-528v-169q0 -33 22.5 -53.5t61.5 -20.5h518l20 -314q-205 -27 -735 -26q-145 0 -238.5 89t-93.5 232zM317 1642v130q0 80 80 79h142q80 0 79 -79v-130 q1 -79 -79 -79h-142q-80 0 -80 79zM705 1642v130q0 80 79 79h142q80 0 80 -79v-130q0 -79 -80 -79h-142q-80 0 -79 79z" />
<glyph unicode="&#x402;" horiz-adv-x="1591" d="M20 1081v332h1223v-332h-389v-231q178 80 342 80q199 0 282 -95.5t83 -342.5q0 -150 -43 -256.5t-123 -163t-177.5 -81t-224.5 -24.5l-41 307q94 25 128 69t34 130q0 76 -17.5 95.5t-78.5 19.5q-86 0 -164 -23v-565h-444v1081h-390z" />
<glyph unicode="&#x403;" horiz-adv-x="1134" d="M111 0v1100q0 143 92 232t237 89q494 0 686 -28l-20 -312h-465q-39 0 -62.5 -20.5t-23.5 -52.5v-1008h-444zM414 1651l477 307l162 -272l-523 -211z" />
<glyph unicode="&#x404;" horiz-adv-x="1243" d="M66 706.5q0 403.5 146 567.5t503 164q270 0 471 -56l-33 -323q-291 4 -438 4q-94 0 -135 -43t-52 -160h551v-274h-553q8 -137 48 -186.5t141 -49.5q296 1 448 17l33 -324q-193 -68 -481 -68q-356 0 -502.5 164t-146.5 567.5z" />
<glyph unicode="&#x405;" horiz-adv-x="1249" d="M61 1026q0 238 129 327t453 89q309 0 514 -72l-27 -285q-246 4 -497 5q-78 0 -104.5 -10.5t-26.5 -43.5q0 -29 25.5 -48t97.5 -48l256 -106q174 -76 245.5 -174.5t71.5 -256.5q0 -240 -125 -336t-452 -96q-276 0 -547 70l26 311q406 -10 514 -10q84 0 112 10t28 39 t-20 47.5t-77 38.5l-280 123q-172 76 -244 173t-72 253z" />
<glyph unicode="&#x406;" horiz-adv-x="673" d="M117 0v1413h440v-1413h-440z" />
<glyph unicode="&#x407;" horiz-adv-x="673" d="M-10 1642v130q0 79 80 79h141q80 0 80 -79v-130q0 -80 -80 -79h-141q-80 0 -80 79zM117 0v1413h440v-1413h-440zM377 1642v130q0 79 80 79h141q80 0 80 -79v-130q0 -80 -80 -79h-141q-80 0 -80 79z" />
<glyph unicode="&#x408;" horiz-adv-x="835" d="M20 25l48 278h96q121 0 121 72v1038h440v-1153q0 -137 -100.5 -213t-274.5 -76q-80 0 -181 14.5t-149 39.5z" />
<glyph unicode="&#x409;" horiz-adv-x="2013" d="M20 293q53 10 83 21.5t62 45t52 95.5q43 125 80 624q25 334 348 334h676v-485h90q319 0 440 -99.5t121 -370t-110.5 -372.5t-372.5 -102q-383 0 -594 16h-12v1122h-72q-86 0 -96 -94q-45 -516 -97 -692q-68 -231 -205 -309t-362 -37zM1321 291h90q72 0 93.5 34.5 t21.5 147.5t-21.5 149.5t-93.5 36.5h-90v-368z" />
<glyph unicode="&#x40a;" horiz-adv-x="1994" d="M117 0v1413h446v-518h305v518h439v-520h110q305 0 422 -93t117 -343q0 -268 -106.5 -370.5t-352.5 -102.5q-406 0 -616 16h-13v604h-305v-604h-446zM1307 291h110q57 0 74.5 32.5t17.5 137.5q0 100 -17 132t-75 32h-110v-334z" />
<glyph unicode="&#x40b;" horiz-adv-x="1658" d="M20 1081v332h1223v-332h-389v-194q201 63 352 63q205 0 300.5 -89t95.5 -279v-582h-447v485q0 63 -21.5 83t-93.5 20h-186v-588h-444v1081h-390z" />
<glyph unicode="&#x40c;" horiz-adv-x="1394" d="M117 0v1413h444v-356q0 -96 -20 -180h45q127 0 172 79.5t121 397.5q10 39 14 59h450q-119 -397 -126 -422q-53 -147 -134 -194q-57 -38 -180 -54v-12q207 -31 272.5 -129t186.5 -524q14 -51 22 -78h-462q-109 403 -140 475q-41 90 -104 107q-31 8 -86 8h-47 q16 -72 16 -129v-461h-444zM518 1651l477 307l162 -272l-522 -211z" />
<glyph unicode="&#x40d;" horiz-adv-x="1503" d="M117 0v1413h422v-627q0 -86 -23 -229h14q39 123 91 217l344 639h421v-1413h-421v649q0 84 22 219h-14q-37 -125 -86 -217l-346 -651h-424zM336 1686l162 272l477 -307l-117 -176z" />
<glyph unicode="&#x40e;" d="M-14 1413h454l160 -686q4 -23 33 -22h18l185 708h454l-307 -1030q-61 -211 -143 -303t-246 -109q-156 -16 -436 29l47 303q162 -8 238.5 0t93.5 57l8 33h-84q-92 0 -143.5 49.5t-77.5 143.5zM281 1862l198 26q0 -66 38 -93.5t130 -27.5q90 0 128 27.5t38 93.5l199 -26 q25 -141 -78 -247t-287 -106t-287.5 105.5t-78.5 247.5z" />
<glyph unicode="&#x40f;" horiz-adv-x="1476" d="M117 0v1413h444v-1122h354v1122h445v-1413h-447l-16 -309h-303l-16 309h-461z" />
<glyph unicode="&#x410;" horiz-adv-x="1398" d="M-18 0l366 1298q14 51 55 83t95 32h403q53 0 94 -31.5t56 -83.5l366 -1298h-452l-72 305h-387l-72 -305h-452zM578 616h243l-69 304q-18 96 -25 161h-55q-12 -96 -25 -161z" />
<glyph unicode="&#x411;" horiz-adv-x="1327" d="M115 0v1413q240 16 526 17q262 0 545 -17l-33 -317h-594v-230h141q332 0 459 -92t127 -344t-123 -349t-403 -97q-414 0 -633 16h-12zM559 291h141q88 0 115 29.5t27 124t-27 124t-115 29.5h-141v-307z" />
<glyph unicode="&#x412;" horiz-adv-x="1359" d="M115 0v1413q209 16 610 17q301 0 416.5 -77t115.5 -292q0 -154 -60.5 -232t-197.5 -90v-12q164 -14 235 -106.5t71 -268.5q0 -211 -118 -289.5t-394 -78.5q-449 0 -678 16zM549 285h164q92 0 120.5 30.5t28.5 126.5q0 98 -28.5 129t-122.5 31h-162v-317zM549 862h158 q78 0 102.5 26.5t24.5 108.5t-26 106.5t-106 24.5h-153v-266z" />
<glyph unicode="&#x413;" horiz-adv-x="1134" d="M111 0v1100q0 143 92 232t237 89q494 0 686 -28l-20 -312h-465q-39 0 -62.5 -20.5t-23.5 -52.5v-1008h-444z" />
<glyph unicode="&#x414;" horiz-adv-x="1603" d="M23 291h155q125 354 172 809q14 137 109.5 225t240.5 88h684v-1122h195v-600h-322l-30 309h-852l-31 -309h-321v600zM596 291h344v831h-84q-86 0 -94 -98q-29 -279 -66 -440.5t-100 -292.5z" />
<glyph unicode="&#x415;" horiz-adv-x="1224" d="M100 313v787q0 143 93.5 232t238.5 89q530 0 735 -26l-20 -314h-518q-39 0 -61.5 -20.5t-22.5 -52.5v-138h528v-295h-528v-169q0 -33 22.5 -53.5t61.5 -20.5h518l20 -314q-205 -27 -735 -26q-145 0 -238.5 89t-93.5 232z" />
<glyph unicode="&#x416;" horiz-adv-x="1982" d="M14 0q117 428 154 514q55 131 145 174q53 27 164 43v12q-49 6 -84 14.5t-65.5 26t-50 29.5t-42 49t-34 59.5t-31.5 86t-31.5 104.5t-38 137.5t-45.5 163.5h451q109 -389 127 -434q35 -88 88 -100q12 -2 29 -2h51q-20 84 -21 180v356h422v-356q0 -90 -18 -180h45 q70 0 102.5 64.5t102.5 318.5q27 96 43 153h450q-18 -68 -45 -164t-38 -137t-31.5 -104.5t-32 -86t-34 -59.5t-41.5 -49t-50 -29.5t-66 -26t-84 -14.5v-12q74 -12 118 -23.5t85 -43t64.5 -66.5t53 -112.5t52.5 -158.5t64 -229q16 -63 26 -98h-465q-129 444 -149 492 q-33 82 -80 94q-14 4 -41 4h-47q16 -72 16 -129v-461h-424v461q0 47 19 129h-49q-51 0 -77 -29t-54.5 -107.5t-88.5 -283.5q-31 -106 -49 -170h-465z" />
<glyph unicode="&#x417;" horiz-adv-x="1200" d="M41 61l33 289q295 -47 483 -47q76 0 101.5 27.5t25.5 111.5q0 88 -25.5 116t-103.5 30l-311 6v276l307 7q63 2 83.5 25.5t20.5 94.5q0 68 -21.5 90.5t-84.5 22.5q-185 0 -453 -31l-33 303q203 47 517 48q291 0 402.5 -77t111.5 -292q0 -156 -57.5 -232.5t-188.5 -89.5 v-12q156 -14 223.5 -106.5t67.5 -268.5q0 -211 -114 -289.5t-380 -78.5q-365 0 -604 77z" />
<glyph unicode="&#x418;" horiz-adv-x="1503" d="M117 0v1413h422v-627q0 -86 -23 -229h14q39 123 91 217l344 639h421v-1413h-421v649q0 84 22 219h-14q-37 -125 -86 -217l-346 -651h-424z" />
<glyph unicode="&#x419;" horiz-adv-x="1503" d="M117 0v1413h422v-627q0 -86 -23 -229h14q39 123 91 217l344 639h421v-1413h-421v649q0 84 22 219h-14q-37 -125 -86 -217l-346 -651h-424zM403 1864h261q-12 -90 14.5 -124t91.5 -34q63 0 89.5 34t14.5 124h261q27 -137 -78 -246t-287 -109t-286.5 108.5t-80.5 246.5z " />
<glyph unicode="&#x41a;" horiz-adv-x="1394" d="M117 0v1413h444v-356q0 -96 -20 -180h45q127 0 172 79.5t121 397.5q10 39 14 59h450q-119 -397 -126 -422q-53 -147 -134 -194q-57 -38 -180 -54v-12q207 -31 272.5 -129t186.5 -524q14 -51 22 -78h-462q-109 403 -140 475q-41 90 -104 107q-31 8 -86 8h-47 q16 -72 16 -129v-461h-444z" />
<glyph unicode="&#x41b;" horiz-adv-x="1454" d="M-8 334q57 6 89 14t63.5 34t48.5 73q55 164 86 604q23 354 372 354h686v-1413h-444v1122h-86q-102 0 -109 -94q-37 -489 -98 -692q-68 -233 -213 -309t-364 -37z" />
<glyph unicode="&#x41c;" horiz-adv-x="1966" d="M90 0l49 1260q6 154 156 153h383q143 0 168 -137l102 -561q10 -66 23 -211h18q0 6 9.5 88t15.5 123l96 561q25 137 170 137h391q150 0 156 -153l49 -1260h-399l-43 1081h-31l-139 -721q-23 -135 -168 -135h-230q-145 0 -170 135l-141 721h-31l-35 -1081h-399z" />
<glyph unicode="&#x41d;" horiz-adv-x="1478" d="M117 0v1413h444v-508h357v508h444v-1413h-444v594h-357v-594h-444z" />
<glyph unicode="&#x41e;" horiz-adv-x="1447" d="M66 706.5q0 292.5 65.5 451.5t203.5 221.5t388 62.5q252 0 390 -62.5t203.5 -221.5t65.5 -451.5t-65.5 -451.5t-203.5 -221.5t-390 -62.5q-250 0 -388 62.5t-203.5 221.5t-65.5 451.5zM532 706.5q0 -243.5 38 -324.5t153 -81t152.5 81t37.5 324.5t-37.5 324.5t-152.5 81 t-153 -81t-38 -324.5z" />
<glyph unicode="&#x41f;" horiz-adv-x="1470" d="M117 0v1413h1237v-1413h-445v1122h-348v-1122h-444z" />
<glyph unicode="&#x420;" horiz-adv-x="1331" d="M115 0v1413q209 20 598 21q338 0 461.5 -100.5t123.5 -381.5q0 -276 -114.5 -376.5t-409.5 -100.5q-111 0 -215 12v-487h-444zM559 788h143q90 0 121 33t31 131q0 100 -30.5 134t-121.5 34h-143v-332z" />
<glyph unicode="&#x421;" horiz-adv-x="1239" d="M66 706.5q0 403.5 144 567.5t497 164q264 0 464 -56l-32 -323q-287 4 -432 4q-104 0 -139.5 -70.5t-35.5 -285.5t35 -286t140 -71q304 1 462 17l33 -324q-197 -68 -495 -68q-352 0 -496.5 164t-144.5 567.5z" />
<glyph unicode="&#x422;" d="M20 1081v332h1235v-332h-395v-1081h-444v1081h-396z" />
<glyph unicode="&#x423;" d="M-14 1413h454l160 -686q4 -23 33 -22h18l185 708h454l-307 -1030q-61 -211 -143 -303t-246 -109q-156 -16 -436 29l47 303q162 -8 238.5 0t93.5 57l8 33h-84q-92 0 -143.5 49.5t-77.5 143.5z" />
<glyph unicode="&#x424;" horiz-adv-x="1796" d="M33 727q0 313 143 447.5t500 158.5v170h444v-170q356 -25 499.5 -159t143.5 -447q0 -301 -143 -431t-500 -155v-170h-444v170q-356 23 -499.5 154t-143.5 432zM477 727q0 -147 42 -203.5t177 -70.5v569q-135 -14 -177 -74.5t-42 -220.5zM1100 453q135 14 177 70.5 t42 203.5q0 158 -42 219.5t-177 75.5v-569z" />
<glyph unicode="&#x425;" horiz-adv-x="1386" d="M-10 0l350 721l-322 692h439l237 -559l236 559h438l-321 -692l350 -721h-441l-262 594l-264 -594h-440z" />
<glyph unicode="&#x426;" horiz-adv-x="1503" d="M117 0v1413h444v-1122h316v1122h444v-1122h156v-600h-322l-31 309h-1007z" />
<glyph unicode="&#x427;" horiz-adv-x="1421" d="M72 811v602h444v-506q-4 -61 20.5 -81.5t100.5 -20.5q125 0 223 29v579h445v-1413h-445v537q-205 -94 -387 -95q-207 0 -304 89.5t-97 279.5z" />
<glyph unicode="&#x428;" horiz-adv-x="2086" d="M117 0v1413h434v-1122h276v1122h433v-1122h276v1122h434v-1413h-1853z" />
<glyph unicode="&#x429;" horiz-adv-x="2146" d="M117 0v1413h434v-1122h272v1122h434v-1122h273v1122h434v-1122h154v-600h-322l-31 309h-1648z" />
<glyph unicode="&#x42a;" horiz-adv-x="1609" d="M18 1081v332h875v-485h113q319 0 441 -99.5t122 -371.5q0 -268 -111.5 -370.5t-372.5 -102.5q-414 0 -626 16h-13v1081h-428zM893 291h113q74 0 95 34.5t21 147.5q0 115 -21.5 150.5t-94.5 35.5h-113v-368z" />
<glyph unicode="&#x42b;" horiz-adv-x="1955" d="M117 0v1413h446v-485h115q322 0 443.5 -99.5t121.5 -371.5q0 -268 -112.5 -370.5t-372.5 -102.5q-416 0 -629 16h-12zM563 291h115q74 0 96.5 34.5t22.5 147.5q0 115 -22.5 150.5t-96.5 35.5h-115v-368zM1393 0v1413h446v-1413h-446z" />
<glyph unicode="&#x42c;" horiz-adv-x="1298" d="M117 0v1413h444v-485h125q326 0 448.5 -99.5t122.5 -371.5q0 -268 -113.5 -370.5t-377.5 -102.5q-422 0 -637 16h-12zM561 291h125q80 0 103.5 34.5t23.5 147.5t-23.5 149.5t-103.5 36.5h-125v-368z" />
<glyph unicode="&#x42d;" horiz-adv-x="1243" d="M47 43l33 324q152 -16 448 -17q100 0 140.5 49.5t48.5 186.5h-553v274h551q-10 117 -51 160t-136 43q-147 0 -438 -4l-33 323q201 55 471 56q356 0 503 -164t147 -567.5t-146.5 -567.5t-503.5 -164q-291 0 -481 68z" />
<glyph unicode="&#x42e;" horiz-adv-x="2091" d="M117 0v1413h446v-539h207q23 326 158 447t444 121q250 0 386 -62.5t201.5 -221.5t65.5 -451.5t-65.5 -451.5t-201.5 -221.5t-386 -62.5q-319 0 -454.5 130t-151.5 483h-203v-584h-446zM1198 706.5q0 -247.5 34 -326.5t140 -79q111 0 146.5 80t35.5 325.5t-35.5 325.5 t-146.5 80q-106 0 -140 -79t-34 -326.5z" />
<glyph unicode="&#x42f;" horiz-adv-x="1359" d="M27 0l106 434q37 194 225 221v13q-274 29 -274 336q0 242 134 336t446 94q379 0 581 -21v-1413h-444v516h-111q-55 0 -77.5 -19.5t-32.5 -76.5l-88 -420h-465zM530 975q0 -88 28 -117t116 -29h127v291h-127q-88 0 -116 -28.5t-28 -116.5z" />
<glyph unicode="&#x430;" horiz-adv-x="1216" d="M45 262v103q0 123 90 193.5t248 70.5h319v8q-2 55 -28.5 78.5t-91.5 23.5q-226 0 -443 -10l-39 272q279 51 584 52q227 0 338 -94.5t111 -323.5v-635h-342l-39 143q-135 -172 -355 -172q-152 0 -252 76t-100 215zM463 326q0 -63 86 -64q68 0 153 51v109h-161 q-78 -1 -78 -64v-32z" />
<glyph unicode="&#x431;" horiz-adv-x="1259" d="M72 651q0 154 15 265.5t54 214t116 173t192 111.5q109 39 320.5 49.5t317.5 53.5l58 -326q-117 -61 -304.5 -64.5t-244.5 -19.5q-121 -33 -160 -84q-37 -45 -53 -156h8q127 119 350 119q256 0 359.5 -110.5t103.5 -370.5q0 -276 -125 -403.5t-420 -127.5 q-121 0 -213 18.5t-153.5 47.5t-104.5 82t-65.5 100t-34.5 128t-14 140.5t-2 159.5zM512 510q0 -152 23.5 -198t97.5 -46t97.5 46t23.5 198q0 145 -22.5 188t-96.5 43q-78 0 -100.5 -43t-22.5 -188z" />
<glyph unicode="&#x432;" horiz-adv-x="1214" d="M94 -6v1030q199 12 565 12q266 0 368.5 -56t102.5 -216q0 -111 -53 -167.5t-174 -64.5v-10q143 -8 205.5 -75.5t62.5 -192.5q0 -156 -104 -214t-346 -58q-406 0 -627 12zM498 250h147q57 0 78.5 18.5t21.5 71.5q0 49 -21.5 66.5t-80.5 17.5h-145v-174zM498 631h145 q53 0 71.5 15.5t18.5 55.5q0 43 -19.5 57.5t-74.5 14.5h-141v-143z" />
<glyph unicode="&#x433;" horiz-adv-x="1009" d="M88 0v770q0 141 72.5 205.5t226.5 64.5q446 0 612 -34l-20 -299h-395q-39 0 -54.5 -13.5t-15.5 -48.5v-645h-426z" />
<glyph unicode="&#x434;" horiz-adv-x="1378" d="M20 -279v558h125q68 195 119 495q41 250 301 250h613v-745h176v-558h-285l-29 279h-706l-29 -279h-285zM526 279h248v483h-57q-70 0 -82 -72q-43 -252 -109 -411z" />
<glyph unicode="&#x435;" horiz-adv-x="1208" d="M51 504q0 301 131 425t451 124q283 0 406.5 -90.5t125.5 -274.5q2 -145 -87 -207.5t-310 -62.5h-256q12 -63 50 -88t120 -25q201 0 416 23l39 -258q-186 -94 -502 -95q-313 0 -448.5 130.5t-135.5 398.5zM504 621h143q70 0 88.5 13t18.5 64q0 47 -23.5 62.5t-85.5 15.5 q-82 2 -109.5 -26.5t-31.5 -128.5z" />
<glyph unicode="&#x436;" horiz-adv-x="1753" d="M14 0q100 342 140 410q41 74 118 94q27 8 140 24v13h-2h-2q-143 18 -181 47q-51 35 -98 174q-12 39 -45 145q-23 74 -37 117h422q90 -293 115 -330q29 -31 78 -30h43q-14 63 -15 133v227h375v-227q0 -55 -14 -133h39q63 0 84.5 37.5t95.5 277.5q10 29 14 45h422 q-96 -313 -117 -354q-35 -80 -98 -103q-35 -12 -148 -26v-13q150 -23 185 -43q63 -33 110 -161q27 -72 103 -324h-434q-88 272 -113 332.5t-57 64.5h-82q10 -51 10 -82v-315h-377v315q0 37 12 82h-82q-31 -4 -56 -67.5t-113 -329.5h-435z" />
<glyph unicode="&#x437;" horiz-adv-x="1095" d="M39 20l27 275q238 -25 448 -25q63 0 80.5 10.5t17.5 55.5q0 35 -16 42t-84 11l-344 8v240l342 8q37 2 51 5t21.5 12.5t7.5 31.5q0 37 -16.5 45.5t-79.5 8.5q-197 0 -408 -25l-27 274q184 55 406 56q311 0 428 -52.5t117 -230.5q0 -121 -52.5 -174t-173.5 -64v-10 q141 -8 204 -73.5t63 -192.5q0 -76 -22.5 -128t-59.5 -83t-105.5 -47t-139.5 -21.5t-179 -5.5q-295 0 -506 49z" />
<glyph unicode="&#x438;" horiz-adv-x="1294" d="M94 0v1024h381v-428q0 -63 -16 -166h10q16 57 80 160l270 434h381v-1024l-383 -4v401q0 78 17 193h-11q-31 -100 -86 -184l-262 -406h-381z" />
<glyph unicode="&#x439;" horiz-adv-x="1294" d="M94 0v1024h381v-428q0 -63 -16 -166h10q16 57 80 160l270 434h381v-1024l-383 -4v401q0 78 17 193h-11q-31 -100 -86 -184l-262 -406h-381zM283 1479h260q-12 -90 14.5 -124t91.5 -34q63 0 90 34t15 124h260q27 -137 -78 -246t-287 -109t-286.5 108.5t-79.5 246.5z" />
<glyph unicode="&#x43a;" horiz-adv-x="1216" d="M94 0v1024h428v-223q0 -70 -14 -135h37q78 0 100.5 37.5t71.5 250.5q10 45 16 70h434q-96 -326 -104 -350q-33 -82 -90 -105q-31 -12 -152 -30v-13q14 -2 41 -6q152 -23 194 -85t140 -415q4 -14 6 -20h-446q-72 266 -92.5 325.5t-57.5 65.5h-94q10 -47 10 -80v-311h-428z " />
<glyph unicode="&#x43b;" horiz-adv-x="1273" d="M6 303q14 2 45 4t45.5 5t34 10.5t29.5 22.5t16 40q25 98 45 373q18 266 281 266h678v-1024h-428v745h-54q-80 0 -86 -71q-20 -184 -51 -404q-18 -135 -97 -209.5t-185.5 -83t-229.5 12.5z" />
<glyph unicode="&#x43c;" horiz-adv-x="1683" d="M82 0l20 879q4 145 148 145h352q139 0 158 -133l59 -320q4 -20 15 -155h12q2 16 5 70.5t9 84.5l55 320q19 133 160 133h361q141 0 145 -145l23 -879h-390l-22 713h-23l-84 -432q-20 -131 -159 -131h-170q-141 0 -162 131l-86 432h-23l-14 -713h-389z" />
<glyph unicode="&#x43d;" horiz-adv-x="1286" d="M94 0v1024h424v-348h252v348h422v-1024h-422v399h-252v-399h-424z" />
<glyph unicode="&#x43e;" horiz-adv-x="1251" d="M53 510q0 299 129.5 421t444.5 122q313 0 442 -122t129 -421q0 -295 -129 -415t-442 -120q-315 0 -444.5 120t-129.5 415zM504 510q0 -152 23.5 -198t99.5 -46q74 0 97.5 46t23.5 198q0 158 -23.5 205t-97.5 47q-76 0 -99.5 -47t-23.5 -205z" />
<glyph unicode="&#x43f;" horiz-adv-x="1271" d="M94 0v1026h1084v-1026h-418v748h-248v-748h-418z" />
<glyph unicode="&#x440;" d="M94 -369v1393h344l35 -139q49 70 153.5 117t223.5 47q195 0 282 -139.5t87 -409.5q0 -303 -92.5 -416t-295.5 -113q-199 0 -313 86q8 -145 6 -223v-203h-430zM524 279q68 -27 135.5 -27t92 44t24.5 199.5t-23.5 199.5t-86.5 44q-68 0 -142 -37v-423z" />
<glyph unicode="&#x441;" horiz-adv-x="1081" d="M53 514q0 297 123 418t426 121q270 0 428 -76l-43 -266h-311q-100 0 -136 -40t-36 -157q0 -119 35.5 -159t136.5 -40q201 1 330 15l38 -269q-164 -86 -446 -86q-301 0 -423 121t-122 418z" />
<glyph unicode="&#x442;" horiz-adv-x="1099" d="M23 705v319h1054v-319h-313v-705h-428v705h-313z" />
<glyph unicode="&#x443;" horiz-adv-x="1232" d="M-6 1024h457l120 -565q8 -55 27 -193h18q16 55 43 193l121 565h457l-326 -995q-61 -205 -158.5 -297t-248.5 -135q-186 -51 -422 0l33 272q207 -2 303 45q49 25 86 86h-72q-104 0 -135 100z" />
<glyph unicode="&#x444;" horiz-adv-x="1597" d="M51 510q0 262 128 386t427 148v390h383v-387q299 -27 427 -151t128 -386q0 -260 -128 -382t-427 -146v-351h-383v351q-299 27 -427 148.5t-128 379.5zM457 510q0 -127 35 -182.5t135 -71.5v516q-100 -18 -135 -74.5t-35 -187.5zM969 256q100 16 135 71.5t35 182.5 q0 131 -35 187.5t-135 74.5v-516z" />
<glyph unicode="&#x445;" horiz-adv-x="1241" d="M-6 0l297 522l-275 502h424l181 -358l180 358h424l-275 -502l297 -522h-426l-200 385l-201 -385h-426z" />
<glyph unicode="&#x446;" horiz-adv-x="1349" d="M94 0v1024h424v-745h217v745h424v-745h164v-558h-285l-28 279h-916z" />
<glyph unicode="&#x447;" horiz-adv-x="1239" d="M63 532v492h429v-367q0 -61 71 -61q78 0 154 29v399h428v-1024h-428v340q-147 -51 -301 -51q-182 0 -267.5 58.5t-85.5 184.5z" />
<glyph unicode="&#x448;" horiz-adv-x="1781" d="M94 0v1024h414v-745h194v745h377v-745h195v745h414v-1024h-1594z" />
<glyph unicode="&#x449;" horiz-adv-x="1871" d="M94 0v1024h414v-745h192v745h377v-745h193v745h413v-745h162v-558h-284l-29 279h-1438z" />
<glyph unicode="&#x44a;" horiz-adv-x="1398" d="M23 717v307h745v-322h70q303 0 415.5 -73.5t112.5 -282.5q0 -203 -105.5 -280.5t-347.5 -77.5q-354 0 -546 12h-13v717h-331zM768 262h70q61 0 78.5 18.5t17.5 81.5q0 66 -16.5 84.5t-79.5 18.5h-70v-203z" />
<glyph unicode="&#x44b;" horiz-adv-x="1724" d="M94 0v1024h414v-322h72q305 0 417.5 -73.5t112.5 -282.5q0 -203 -105.5 -280.5t-349.5 -77.5q-354 0 -549 12h-12zM508 262h72q63 0 80.5 18.5t17.5 81.5q0 66 -17.5 84.5t-80.5 18.5h-72v-203zM1198 0v1024h432v-1024h-432z" />
<glyph unicode="&#x44c;" horiz-adv-x="1153" d="M94 0v1024h412v-322h80q307 0 420.5 -73.5t113.5 -282.5q0 -203 -107.5 -280.5t-353.5 -77.5q-358 0 -553 12h-12zM506 262h80q66 0 85 18.5t19 81.5q0 66 -19.5 84.5t-84.5 18.5h-80v-203z" />
<glyph unicode="&#x44d;" horiz-adv-x="1155" d="M43 39l31 264q170 -8 420 -8q96 0 129.5 17.5t42.5 93.5h-514v225h510q-12 63 -48 81.5t-120 18.5h-410l-33 258q182 63 443 64q336 0 472 -120t136 -425q0 -297 -136.5 -417t-471.5 -120q-266 0 -451 68z" />
<glyph unicode="&#x44e;" horiz-adv-x="1781" d="M94 0v1024h430v-362h146q25 229 137.5 310t370.5 81q158 0 256 -22.5t166.5 -83t97 -166t28.5 -273.5q0 -162 -28.5 -264.5t-97 -161.5t-167 -82t-255.5 -23q-264 0 -378 84t-132 322h-144v-383h-430zM1057 514q0 -145 18 -182t96 -37q72 0 91.5 38t19.5 181 q0 145 -19.5 183t-91.5 38q-78 0 -96 -38t-18 -183z" />
<glyph unicode="&#x44f;" horiz-adv-x="1202" d="M25 0l75 328q31 92 197 104v10q-223 47 -223 273q0 207 97 272.5t400 65.5q391 0 537 -17v-1036h-418v322h-90q-43 0 -58.5 -8.5t-19.5 -39.5l-59 -274h-438zM492 688q0 -72 17 -93.5t71 -21.5h110v185h-110q-53 0 -70.5 -14.5t-17.5 -55.5z" />
<glyph unicode="&#x451;" horiz-adv-x="1208" d="M51 504q0 301 131 425t451 124q283 0 406.5 -90.5t125.5 -274.5q2 -145 -87 -207.5t-310 -62.5h-256q12 -63 50 -88t120 -25q201 0 416 23l39 -258q-186 -94 -502 -95q-313 0 -448.5 130.5t-135.5 398.5zM291 1257v129q0 80 80 80h141q80 0 80 -80v-129q0 -79 -80 -79 h-141q-80 0 -80 79zM504 621h143q70 0 88.5 13t18.5 64q0 47 -23.5 62.5t-85.5 15.5q-82 2 -109.5 -26.5t-31.5 -128.5zM678 1257v129q0 80 80 80h141q80 0 80 -80v-129q0 -79 -80 -79h-141q-80 0 -80 79z" />
<glyph unicode="&#x452;" horiz-adv-x="1286" d="M20 956v185h115v293h432v-293h340v-185h-340v-12q0 -119 -20 -225q186 150 381 149q301 0 301 -286v-582h-432v444q0 33 -16.5 47.5t-57.5 14.5q-80 0 -156 -25v-481h-432v956h-115z" />
<glyph unicode="&#x453;" horiz-adv-x="1009" d="M88 0v770q0 141 72.5 205.5t226.5 64.5q446 0 612 -34l-20 -299h-395q-39 0 -54.5 -13.5t-15.5 -48.5v-645h-426zM307 1266l477 307l162 -273l-522 -210z" />
<glyph unicode="&#x454;" horiz-adv-x="1155" d="M53 508q0 305 136.5 425t472.5 120q274 0 442 -64l-33 -258q-135 -2 -409 -2q-84 2 -120 -16.5t-48 -81.5h512v-225h-517q10 -74 45 -92.5t128 -18.5q249 0 419 8l31 -264q-170 -68 -450 -68q-336 0 -472.5 120t-136.5 417z" />
<glyph unicode="&#x455;" horiz-adv-x="1132" d="M49 754q0 147 108.5 223t366.5 76q305 0 525 -45l-27 -250h-404q-111 0 -132 -3t-21 -21.5t70 -35.5q31 -8 51 -14l235 -59q141 -39 206 -110t65 -200q0 -193 -112 -265.5t-384 -72.5q-283 0 -533 43l27 250h365q152 0 186.5 4.5t34.5 26.5q0 4 -1 7t-4 6t-6 5.5 t-9.5 5.5t-13.5 4t-18.5 5t-21.5 6t-26.5 7t-32.5 9l-226 62q-158 45 -213 125t-55 211z" />
<glyph unicode="&#x456;" horiz-adv-x="632" d="M100 1262v104q0 127 125 127h183q125 0 124 -127v-104q0 -127 -124 -127h-183q-125 0 -125 127zM102 0v1024h428v-1024h-428z" />
<glyph unicode="&#x457;" horiz-adv-x="636" d="M-29 1257v129q0 80 80 80h142q80 0 79 -80v-129q0 -80 -79 -79h-142q-80 0 -80 79zM102 0v1024h433v-1024h-433zM358 1257v129q0 80 80 80h142q80 0 79 -80v-129q0 -80 -79 -79h-142q-80 0 -80 79z" />
<glyph unicode="&#x458;" horiz-adv-x="632" d="M-39 -201q141 141 141 320v905h428v-905q0 -164 -90 -305.5t-241 -202.5zM94 1282v104q0 127 125 127h182q125 0 125 -127v-104q0 -127 -125 -127h-182q-125 0 -125 127z" />
<glyph unicode="&#x459;" horiz-adv-x="1726" d="M27 287q47 4 72.5 9t52 27.5t36.5 61.5q27 104 58 375q29 264 295 264h587v-330h56q293 0 401.5 -73.5t108.5 -280.5q0 -199 -102.5 -275.5t-338.5 -76.5q-201 0 -508 12h-12v770h-49q-41 0 -59.5 -18.5t-22.5 -67.5q-27 -270 -72 -424q-53 -180 -172.5 -241.5 t-304.5 -26.5zM1128 254h56q66 0 83 19.5t17 82.5q0 66 -17.5 84.5t-82.5 18.5h-56v-205z" />
<glyph unicode="&#x45a;" horiz-adv-x="1705" d="M94 0v1024h391v-358h224v358h401v-360h76q281 0 385 -68t104 -256q0 -199 -97 -275.5t-323 -76.5q-352 0 -538 12h-8v412h-224v-412h-391zM1110 254h76q49 0 64.5 17.5t15.5 72.5t-14.5 70.5t-65.5 15.5h-76v-176z" />
<glyph unicode="&#x45b;" horiz-adv-x="1286" d="M20 956v185h115v293h432v-293h340v-185h-340v-12q0 -119 -20 -225q186 150 381 149q301 0 301 -286v-463q0 -164 -85 -305.5t-229 -202.5l-239 188q121 133 121 320v325q0 33 -16.5 47.5t-57.5 14.5q-80 0 -156 -25v-481h-432v956h-115z" />
<glyph unicode="&#x45c;" horiz-adv-x="1216" d="M94 0v1024h428v-223q0 -70 -14 -135h37q78 0 100.5 37.5t71.5 250.5q10 45 16 70h434q-96 -326 -104 -350q-33 -82 -90 -105q-31 -12 -152 -30v-13q14 -2 41 -6q152 -23 194 -85t140 -415q4 -14 6 -20h-446q-72 266 -92.5 325.5t-57.5 65.5h-94q10 -47 10 -80v-311h-428z M428 1266l477 307l162 -273l-522 -210z" />
<glyph unicode="&#x45d;" horiz-adv-x="1294" d="M94 0v1024h381v-428q0 -63 -16 -166h10q16 57 80 160l270 434h381v-1024l-383 -4v401q0 78 17 193h-11q-31 -100 -86 -184l-262 -406h-381zM215 1300l162 273l477 -307l-117 -176z" />
<glyph unicode="&#x45e;" horiz-adv-x="1232" d="M-6 1024h457l120 -565q8 -55 27 -193h18q16 55 43 193l121 565h457l-326 -995q-61 -205 -158.5 -297t-248.5 -135q-186 -51 -422 0l33 272q207 -2 303 45q49 25 86 86h-72q-104 0 -135 100zM248 1479h260q-12 -90 14.5 -124t91.5 -34q63 0 90 34t15 124h260 q27 -137 -77.5 -246t-287 -109t-287 108.5t-79.5 246.5z" />
<glyph unicode="&#x45f;" horiz-adv-x="1280" d="M94 0v1024h426v-745h244v745h422v-1024h-377l-25 -332h-288l-27 332h-375z" />
<glyph unicode="&#x490;" horiz-adv-x="1136" d="M111 0v1100q0 143 92 232t237 89q242 0 363 -4l31 309h294v-333l-20 -312h-467q-39 0 -62.5 -20.5t-23.5 -52.5v-1008h-444z" />
<glyph unicode="&#x491;" horiz-adv-x="1009" d="M88 0v770q0 141 72.5 205.5t226.5 64.5q201 0 301 -4l31 279h280v-309l-20 -299h-395q-39 0 -54.5 -13.5t-15.5 -48.5v-645h-426z" />
<glyph unicode="&#x4b0;" horiz-adv-x="1347" d="M-16 1413h456l178 -444q18 -45 44 -199h26q25 150 43 201l176 442h457l-381 -795h186v-212h-272v-406h-444v406h-273v212h185z" />
<glyph unicode="&#x4b1;" horiz-adv-x="1339" d="M-14 1024h456l174 -434q10 -27 18.5 -59.5t15.5 -77.5t9 -62h25q4 16 10 61.5t14.5 79t18.5 60.5l172 432h457l-377 -784h184v-254h-268v-355h-446v355h-269v254h182z" />
<glyph unicode="&#x2000;" horiz-adv-x="979" />
<glyph unicode="&#x2001;" horiz-adv-x="1958" />
<glyph unicode="&#x2002;" horiz-adv-x="979" />
<glyph unicode="&#x2003;" horiz-adv-x="1958" />
<glyph unicode="&#x2004;" horiz-adv-x="652" />
<glyph unicode="&#x2005;" horiz-adv-x="489" />
<glyph unicode="&#x2006;" horiz-adv-x="326" />
<glyph unicode="&#x2007;" horiz-adv-x="326" />
<glyph unicode="&#x2008;" horiz-adv-x="244" />
<glyph unicode="&#x2009;" horiz-adv-x="391" />
<glyph unicode="&#x200a;" horiz-adv-x="108" />
<glyph unicode="&#x2010;" horiz-adv-x="776" d="M90 401v250h596v-250h-596z" />
<glyph unicode="&#x2011;" horiz-adv-x="776" d="M90 401v250h596v-250h-596z" />
<glyph unicode="&#x2012;" horiz-adv-x="776" d="M90 401v250h596v-250h-596z" />
<glyph unicode="&#x2013;" horiz-adv-x="1083" d="M90 401v250h903v-250h-903z" />
<glyph unicode="&#x2014;" horiz-adv-x="1677" d="M90 401v250h1497v-250h-1497z" />
<glyph unicode="&#x2018;" horiz-adv-x="452" d="M68 942v119q0 131 28.5 218t89.5 175l140 -45q-31 -98 -35 -256q104 0 108 -119l-4 -92q-2 -76 -28.5 -104.5t-98.5 -28.5h-71q-72 0 -99.5 28.5t-29.5 104.5z" />
<glyph unicode="&#x2019;" horiz-adv-x="446" d="M51 1208l4 92q2 76 28.5 105t98.5 29h72q72 0 99.5 -29t29.5 -105v-118q0 -133 -28.5 -219t-90.5 -175l-139 46q31 98 35 256q-104 0 -109 118z" />
<glyph unicode="&#x201a;" horiz-adv-x="475" d="M70 131l4 100q2 84 28.5 116t98.5 32h71q72 0 99.5 -32t29.5 -116v-131q0 -145 -28.5 -239t-89.5 -193l-140 51q31 106 35 281q-104 0 -108 131z" />
<glyph unicode="&#x201c;" horiz-adv-x="860" d="M68 942v119q0 131 28.5 218t89.5 175l140 -45q-31 -98 -35 -256q104 0 108 -119l-4 -92q-2 -76 -28.5 -104.5t-98.5 -28.5h-71q-72 0 -99.5 28.5t-29.5 104.5zM475 942v119q0 131 28.5 218t90.5 175l139 -45q-31 -98 -35 -256q104 0 109 -119l-4 -92q-2 -76 -28.5 -104.5 t-98.5 -28.5h-72q-72 0 -99.5 28.5t-29.5 104.5z" />
<glyph unicode="&#x201d;" horiz-adv-x="854" d="M51 1208l4 92q2 76 28.5 105t98.5 29h72q72 0 99.5 -29t29.5 -105v-118q0 -133 -28.5 -219t-90.5 -175l-139 46q31 98 35 256q-104 0 -109 118zM459 1208l4 92q2 76 28.5 105t98.5 29h72q72 0 99 -29t30 -105v-118q0 -133 -29 -219t-90 -175l-140 46q31 98 35 256 q-104 0 -108 118z" />
<glyph unicode="&#x201e;" horiz-adv-x="878" d="M68 88l4 92q2 76 28.5 104.5t98.5 28.5h71q72 0 99.5 -28.5t29.5 -104.5v-119q0 -131 -28.5 -218t-89.5 -175l-140 45q31 98 35 256q-104 0 -108 119zM475 88l4 92q2 76 28.5 104.5t98.5 28.5h72q72 0 99.5 -28.5t29.5 -104.5v-119q0 -131 -28.5 -218t-90.5 -175l-139 45 q31 98 35 256q-104 0 -109 119z" />
<glyph unicode="&#x2022;" horiz-adv-x="780" d="M115 539v34q0 141 57 195.5t209 54.5h35q139 0 194.5 -55t55.5 -195v-34q0 -152 -54.5 -209.5t-195.5 -57.5h-35q-152 0 -209 57.5t-57 209.5z" />
<glyph unicode="&#x202f;" horiz-adv-x="391" />
<glyph unicode="&#x2039;" horiz-adv-x="649" d="M43 469v90l324 404l225 -142l-176 -307l176 -319l-225 -142z" />
<glyph unicode="&#x203a;" horiz-adv-x="649" d="M57 195l179 319l-179 307l226 142l323 -404v-90l-323 -416z" />
<glyph unicode="&#x205f;" horiz-adv-x="489" />
<glyph unicode="&#x20ac;" horiz-adv-x="1318" d="M55 453v225h981l-22 -225h-346q37 -104 149 -123q66 -10 195 -5t225 21l33 -303q-174 -68 -418 -68q-303 0 -458.5 115t-198.5 363h-140zM57 739v226h138q43 244 198.5 358.5t458.5 114.5q209 0 379 -56l-35 -303q-272 27 -379 4q-106 -25 -145 -118h399l-22 -226h-992z " />
<glyph unicode="&#x25fc;" horiz-adv-x="1024" d="M0 0v1024h1024v-1024h-1024z" />
</font>
</defs>
</svg>
